<svg width="64" height="65" viewBox="0 0 64 65" fill="none" xmlns="http://www.w3.org/2000/svg">
<path d="M35.8 33.9C34.946 33.9 34.136 34.086 33.406 34.418L27.4 30.3L30.992 36.456C30.3439 37.4136 29.9983 38.5437 30 39.7C30 42.904 32.596 45.5 35.8 45.5C39.004 45.5 41.6 42.904 41.6 39.7C41.6 36.496 39.004 33.9 35.8 33.9ZM18.114 20.814L16.738 8.798L12.902 12.632L8.384 8.116L5.416 11.084L9.932 15.602L6.098 19.438L18.114 20.814Z" fill="url(#paint0_linear_2_117)"/>
<path d="M35.8 33.9C34.946 33.9 34.136 34.086 33.406 34.418L27.4 30.3L30.992 36.456C30.3439 37.4136 29.9983 38.5437 30 39.7C30 42.904 32.596 45.5 35.8 45.5C39.004 45.5 41.6 42.904 41.6 39.7C41.6 36.496 39.004 33.9 35.8 33.9ZM18.114 20.814L16.738 8.798L12.902 12.632L8.384 8.116L5.416 11.084L9.932 15.602L6.098 19.438L18.114 20.814Z" fill="url(#paint1_radial_2_117)"/>
<path d="M35.8 33.9C34.946 33.9 34.136 34.086 33.406 34.418L27.4 30.3L30.992 36.456C30.3439 37.4136 29.9983 38.5437 30 39.7C30 42.904 32.596 45.5 35.8 45.5C39.004 45.5 41.6 42.904 41.6 39.7C41.6 36.496 39.004 33.9 35.8 33.9ZM18.114 20.814L16.738 8.798L12.902 12.632L8.384 8.116L5.416 11.084L9.932 15.602L6.098 19.438L18.114 20.814Z" fill="url(#paint2_linear_2_117)"/>
<path d="M59.6 39.3C59.6 31.874 56.182 25.234 50.836 20.866L50.798 20.828L50.794 20.832C46.988 17.736 42.214 15.79 37 15.53V15.5H34.6V15.53C29.368 15.792 24.576 17.75 20.764 20.866L20.726 20.828L20.294 21.26C15.218 25.628 12 32.096 12 39.3C12 44.748 13.84 49.954 17.212 54.164L17.21 54.166L17.238 54.198C17.644 54.702 18.068 55.192 18.518 55.666L18.544 55.64L18.82 55.946L25.788 49.636L24.176 47.858L19.586 52.014C16.746 48.396 15.2 43.95 15.2 39.3C15.2 38.83 15.218 38.362 15.248 37.9H21.8V35.5H15.552C16.33 31.34 18.362 27.616 21.242 24.738L25.676 29.172L27.374 27.474L23.04 23.14C26.258 20.594 30.252 18.986 34.602 18.734V24.9H37.002V18.736C41.334 18.986 45.312 20.58 48.522 23.106L44.154 27.474L45.85 29.172L50.32 24.702C53.218 27.586 55.266 31.322 56.048 35.5H49.724V37.9H56.352C56.384 38.362 56.4 38.83 56.4 39.3C56.4 44.006 54.812 48.51 51.9 52.15L47.282 48.098L45.7 49.902L52.766 56.102L54.348 54.298L54.308 54.264C57.732 50.036 59.6 44.788 59.6 39.3Z" fill="url(#paint3_linear_2_117)"/>
<path d="M59.6 39.3C59.6 31.874 56.182 25.234 50.836 20.866L50.798 20.828L50.794 20.832C46.988 17.736 42.214 15.79 37 15.53V15.5H34.6V15.53C29.368 15.792 24.576 17.75 20.764 20.866L20.726 20.828L20.294 21.26C15.218 25.628 12 32.096 12 39.3C12 44.748 13.84 49.954 17.212 54.164L17.21 54.166L17.238 54.198C17.644 54.702 18.068 55.192 18.518 55.666L18.544 55.64L18.82 55.946L25.788 49.636L24.176 47.858L19.586 52.014C16.746 48.396 15.2 43.95 15.2 39.3C15.2 38.83 15.218 38.362 15.248 37.9H21.8V35.5H15.552C16.33 31.34 18.362 27.616 21.242 24.738L25.676 29.172L27.374 27.474L23.04 23.14C26.258 20.594 30.252 18.986 34.602 18.734V24.9H37.002V18.736C41.334 18.986 45.312 20.58 48.522 23.106L44.154 27.474L45.85 29.172L50.32 24.702C53.218 27.586 55.266 31.322 56.048 35.5H49.724V37.9H56.352C56.384 38.362 56.4 38.83 56.4 39.3C56.4 44.006 54.812 48.51 51.9 52.15L47.282 48.098L45.7 49.902L52.766 56.102L54.348 54.298L54.308 54.264C57.732 50.036 59.6 44.788 59.6 39.3Z" fill="url(#paint4_radial_2_117)"/>
<path d="M59.6 39.3C59.6 31.874 56.182 25.234 50.836 20.866L50.798 20.828L50.794 20.832C46.988 17.736 42.214 15.79 37 15.53V15.5H34.6V15.53C29.368 15.792 24.576 17.75 20.764 20.866L20.726 20.828L20.294 21.26C15.218 25.628 12 32.096 12 39.3C12 44.748 13.84 49.954 17.212 54.164L17.21 54.166L17.238 54.198C17.644 54.702 18.068 55.192 18.518 55.666L18.544 55.64L18.82 55.946L25.788 49.636L24.176 47.858L19.586 52.014C16.746 48.396 15.2 43.95 15.2 39.3C15.2 38.83 15.218 38.362 15.248 37.9H21.8V35.5H15.552C16.33 31.34 18.362 27.616 21.242 24.738L25.676 29.172L27.374 27.474L23.04 23.14C26.258 20.594 30.252 18.986 34.602 18.734V24.9H37.002V18.736C41.334 18.986 45.312 20.58 48.522 23.106L44.154 27.474L45.85 29.172L50.32 24.702C53.218 27.586 55.266 31.322 56.048 35.5H49.724V37.9H56.352C56.384 38.362 56.4 38.83 56.4 39.3C56.4 44.006 54.812 48.51 51.9 52.15L47.282 48.098L45.7 49.902L52.766 56.102L54.348 54.298L54.308 54.264C57.732 50.036 59.6 44.788 59.6 39.3Z" fill="url(#paint5_linear_2_117)"/>
<defs>
<linearGradient id="paint0_linear_2_117" x1="33.2005" y1="8.116" x2="123.838" y2="32.6231" gradientUnits="userSpaceOnUse">
<stop stop-color="#6B4339"/>
<stop offset="1" stop-color="#6B4339" stop-opacity="0"/>
</linearGradient>
<radialGradient id="paint1_radial_2_117" cx="0" cy="0" r="1" gradientUnits="userSpaceOnUse" gradientTransform="translate(60.1537 26.808) rotate(156.561) scale(79.678 28.4806)">
<stop stop-color="#E2BDAD" stop-opacity="0.45"/>
<stop offset="1" stop-color="#E2BDAD" stop-opacity="0"/>
</radialGradient>
<linearGradient id="paint2_linear_2_117" x1="-3.68608" y1="55.2756" x2="80.2032" y2="13.3906" gradientUnits="userSpaceOnUse">
<stop stop-color="#6B4339"/>
<stop offset="1" stop-color="#6B4339" stop-opacity="0"/>
</linearGradient>
<linearGradient id="paint3_linear_2_117" x1="48.5504" y1="15.5" x2="164.106" y2="53.3448" gradientUnits="userSpaceOnUse">
<stop stop-color="#6B4339"/>
<stop offset="1" stop-color="#6B4339" stop-opacity="0"/>
</linearGradient>
<radialGradient id="paint4_radial_2_117" cx="0" cy="0" r="1" gradientUnits="userSpaceOnUse" gradientTransform="translate(84.0074 35.801) rotate(160.306) scale(102.142 31.742)">
<stop stop-color="#E2BDAD" stop-opacity="0.45"/>
<stop offset="1" stop-color="#E2BDAD" stop-opacity="0"/>
</radialGradient>
<linearGradient id="paint5_linear_2_117" x1="0.0262269" y1="66.7191" x2="100.974" y2="5.67047" gradientUnits="userSpaceOnUse">
<stop stop-color="#6B4339"/>
<stop offset="1" stop-color="#6B4339" stop-opacity="0"/>
</linearGradient>
</defs>
</svg>
