<svg width="98" height="47" viewBox="0 0 98 47" fill="none" xmlns="http://www.w3.org/2000/svg">
<path opacity="0.16" d="M4.017 28.5264C3.33233 28.5264 2.66933 28.4224 2.028 28.2144C1.39533 27.9977 0.897 27.7204 0.533 27.3824L1.014 26.3684C1.36067 26.6804 1.80267 26.936 2.34 27.1354C2.886 27.326 3.445 27.4214 4.017 27.4214C4.771 27.4214 5.33433 27.2957 5.707 27.0444C6.07967 26.7844 6.266 26.442 6.266 26.0174C6.266 25.7054 6.162 25.454 5.954 25.2634C5.75467 25.064 5.50333 24.9124 5.2 24.8084C4.90533 24.7044 4.485 24.5874 3.939 24.4574C3.25433 24.2927 2.69967 24.128 2.275 23.9634C1.859 23.7987 1.49933 23.5474 1.196 23.2094C0.901333 22.8627 0.754 22.399 0.754 21.8184C0.754 21.333 0.879667 20.8954 1.131 20.5054C1.391 20.1154 1.781 19.8034 2.301 19.5694C2.821 19.3354 3.46667 19.2184 4.238 19.2184C4.77533 19.2184 5.304 19.2877 5.824 19.4264C6.344 19.565 6.79033 19.7644 7.163 20.0244L6.734 21.0644C6.35267 20.8217 5.94533 20.6397 5.512 20.5184C5.07867 20.3884 4.654 20.3234 4.238 20.3234C3.50133 20.3234 2.94667 20.4577 2.574 20.7264C2.21 20.995 2.028 21.3417 2.028 21.7664C2.028 22.0784 2.132 22.334 2.34 22.5334C2.548 22.724 2.80367 22.8757 3.107 22.9884C3.419 23.0924 3.83933 23.205 4.368 23.3264C5.05267 23.491 5.603 23.6557 6.019 23.8204C6.435 23.985 6.79033 24.2364 7.085 24.5744C7.38833 24.9124 7.54 25.3674 7.54 25.9394C7.54 26.416 7.41 26.8537 7.15 27.2524C6.89 27.6424 6.49567 27.9544 5.967 28.1884C5.43833 28.4137 4.78833 28.5264 4.017 28.5264Z" fill="white"/>
<path opacity="0.16" d="M16.365 19.3224H20.2C21.162 19.3224 22.0157 19.513 22.761 19.8944C23.5063 20.2757 24.0827 20.813 24.49 21.5064C24.906 22.191 25.114 22.9797 25.114 23.8724C25.114 24.765 24.906 25.558 24.49 26.2514C24.0827 26.936 23.5063 27.469 22.761 27.8504C22.0157 28.2317 21.162 28.4224 20.2 28.4224H16.365V19.3224ZM20.122 27.2914C20.8587 27.2914 21.5043 27.1484 22.059 26.8624C22.6223 26.5764 23.0557 26.1777 23.359 25.6664C23.6623 25.1464 23.814 24.5484 23.814 23.8724C23.814 23.1964 23.6623 22.6027 23.359 22.0914C23.0557 21.5714 22.6223 21.1684 22.059 20.8824C21.5043 20.5964 20.8587 20.4534 20.122 20.4534H17.665V27.2914H20.122Z" fill="white"/>
<rect width="34" height="45.5" transform="translate(32 0.672363)" fill="black"/>
<path d="M50.528 8.88836C53.1947 8.88836 55.2747 9.73103 56.768 11.4164C58.2613 13.0804 59.008 15.459 59.008 18.5524V31.6724H53.824V18.7124C53.824 16.9204 53.3973 15.5764 52.544 14.6804C51.712 13.763 50.5493 13.3044 49.056 13.3044C47.4773 13.3044 46.208 13.795 45.248 14.7764C44.3093 15.7364 43.84 17.1657 43.84 19.0644V31.6724H38.656V9.27236H43.68V11.9924C44.448 10.9684 45.408 10.2004 46.56 9.68836C47.712 9.15503 49.0347 8.88836 50.528 8.88836Z" fill="url(#paint0_linear_102_275)"/>
<path d="M50.528 8.88836C53.1947 8.88836 55.2747 9.73103 56.768 11.4164C58.2613 13.0804 59.008 15.459 59.008 18.5524V31.6724H53.824V18.7124C53.824 16.9204 53.3973 15.5764 52.544 14.6804C51.712 13.763 50.5493 13.3044 49.056 13.3044C47.4773 13.3044 46.208 13.795 45.248 14.7764C44.3093 15.7364 43.84 17.1657 43.84 19.0644V31.6724H38.656V9.27236H43.68V11.9924C44.448 10.9684 45.408 10.2004 46.56 9.68836C47.712 9.15503 49.0347 8.88836 50.528 8.88836Z" fill="url(#paint1_radial_102_275)"/>
<path d="M50.528 8.88836C53.1947 8.88836 55.2747 9.73103 56.768 11.4164C58.2613 13.0804 59.008 15.459 59.008 18.5524V31.6724H53.824V18.7124C53.824 16.9204 53.3973 15.5764 52.544 14.6804C51.712 13.763 50.5493 13.3044 49.056 13.3044C47.4773 13.3044 46.208 13.795 45.248 14.7764C44.3093 15.7364 43.84 17.1657 43.84 19.0644V31.6724H38.656V9.27236H43.68V11.9924C44.448 10.9684 45.408 10.2004 46.56 9.68836C47.712 9.15503 49.0347 8.88836 50.528 8.88836Z" fill="url(#paint2_linear_102_275)"/>
<path opacity="0.16" d="M76.914 19.3224C78.0927 19.3224 79.02 19.604 79.696 20.1674C80.372 20.7307 80.71 21.5064 80.71 22.4944C80.71 23.4824 80.372 24.258 79.696 24.8214C79.02 25.3847 78.0927 25.6664 76.914 25.6664H74.665V28.4224H73.365V19.3224H76.914ZM76.875 24.5354C77.6983 24.5354 78.3267 24.362 78.76 24.0154C79.1933 23.66 79.41 23.153 79.41 22.4944C79.41 21.8357 79.1933 21.333 78.76 20.9864C78.3267 20.631 77.6983 20.4534 76.875 20.4534H74.665V24.5354H76.875Z" fill="white"/>
<path opacity="0.16" d="M95.449 28.4224L93.486 25.6274C93.2433 25.6447 93.0527 25.6534 92.914 25.6534H90.665V28.4224H89.365V19.3224H92.914C94.0927 19.3224 95.02 19.604 95.696 20.1674C96.372 20.7307 96.71 21.5064 96.71 22.4944C96.71 23.1964 96.5367 23.7944 96.19 24.2884C95.8433 24.7824 95.3493 25.142 94.708 25.3674L96.866 28.4224H95.449ZM92.875 24.5484C93.6983 24.5484 94.3267 24.3707 94.76 24.0154C95.1933 23.66 95.41 23.153 95.41 22.4944C95.41 21.8357 95.1933 21.333 94.76 20.9864C94.3267 20.631 93.6983 20.4534 92.875 20.4534H90.665V24.5484H92.875Z" fill="white"/>
<defs>
<linearGradient id="paint0_linear_102_275" x1="55.9645" y1="0.672363" x2="66.2066" y2="9.90577" gradientUnits="userSpaceOnUse">
<stop stop-color="#6B4339"/>
<stop offset="1" stop-color="#6B4339" stop-opacity="0"/>
</linearGradient>
<radialGradient id="paint1_radial_102_275" cx="0" cy="0" r="1" gradientUnits="userSpaceOnUse" gradientTransform="translate(62 14.83) rotate(143.658) scale(17.385 7.39482)">
<stop stop-color="#E2BDAD" stop-opacity="0.45"/>
<stop offset="1" stop-color="#E2BDAD" stop-opacity="0"/>
</radialGradient>
<linearGradient id="paint2_linear_102_275" x1="29.4597" y1="49.8705" x2="71.515" y2="21.7991" gradientUnits="userSpaceOnUse">
<stop stop-color="#6B4339"/>
<stop offset="1" stop-color="#6B4339" stop-opacity="0"/>
</linearGradient>
</defs>
</svg>
