<svg width="986" height="288" viewBox="0 0 986 288" fill="none" xmlns="http://www.w3.org/2000/svg">
<path d="M415.908 103.244L345.506 22.7855L409.158 103.244L133.618 287.715L415.908 103.244Z" fill="url(#paint0_linear_102_243)"/>
<path d="M415.908 103.244L345.506 22.7855L409.158 103.244L133.618 287.715L415.908 103.244Z" fill="url(#paint1_radial_102_243)"/>
<path d="M415.908 103.244L345.506 22.7855L409.158 103.244L133.618 287.715L415.908 103.244Z" fill="url(#paint2_linear_102_243)"/>
<g opacity="0.8">
<path d="M397.884 100.739L327.482 20.2808L391.134 100.739L115.593 285.21L397.884 100.739Z" fill="url(#paint3_linear_102_243)"/>
<path d="M397.884 100.739L327.482 20.2808L391.134 100.739L115.593 285.21L397.884 100.739Z" fill="url(#paint4_radial_102_243)"/>
<path d="M397.884 100.739L327.482 20.2808L391.134 100.739L115.593 285.21L397.884 100.739Z" fill="url(#paint5_linear_102_243)"/>
</g>
<g opacity="0.6">
<path d="M380.722 98.2344L310.32 17.7761L373.972 98.2344L98.4314 282.705L380.722 98.2344Z" fill="url(#paint6_linear_102_243)"/>
<path d="M380.722 98.2344L310.32 17.7761L373.972 98.2344L98.4314 282.705L380.722 98.2344Z" fill="url(#paint7_radial_102_243)"/>
<path d="M380.722 98.2344L310.32 17.7761L373.972 98.2344L98.4314 282.705L380.722 98.2344Z" fill="url(#paint8_linear_102_243)"/>
</g>
<g opacity="0.4">
<path d="M366.922 95.7297L296.521 15.2714L360.173 95.7297L84.632 280.2L366.922 95.7297Z" fill="url(#paint9_linear_102_243)"/>
<path d="M366.922 95.7297L296.521 15.2714L360.173 95.7297L84.632 280.2L366.922 95.7297Z" fill="url(#paint10_radial_102_243)"/>
<path d="M366.922 95.7297L296.521 15.2714L360.173 95.7297L84.632 280.2L366.922 95.7297Z" fill="url(#paint11_linear_102_243)"/>
</g>
<g opacity="0.3">
<path d="M349.76 93.2251L279.359 12.7667L343.011 93.2251L67.4701 277.696L349.76 93.2251Z" fill="url(#paint12_linear_102_243)"/>
<path d="M349.76 93.2251L279.359 12.7667L343.011 93.2251L67.4701 277.696L349.76 93.2251Z" fill="url(#paint13_radial_102_243)"/>
<path d="M349.76 93.2251L279.359 12.7667L343.011 93.2251L67.4701 277.696L349.76 93.2251Z" fill="url(#paint14_linear_102_243)"/>
</g>
<g opacity="0.2">
<path d="M332.599 90.7204L262.197 10.262L325.849 90.7204L50.3082 275.191L332.599 90.7204Z" fill="url(#paint15_linear_102_243)"/>
<path d="M332.599 90.7204L262.197 10.262L325.849 90.7204L50.3082 275.191L332.599 90.7204Z" fill="url(#paint16_radial_102_243)"/>
<path d="M332.599 90.7204L262.197 10.262L325.849 90.7204L50.3082 275.191L332.599 90.7204Z" fill="url(#paint17_linear_102_243)"/>
</g>
<g opacity="0.15">
<path d="M315.437 88.2157L245.035 7.75732L308.687 88.2157L33.1464 272.686L315.437 88.2157Z" fill="url(#paint18_linear_102_243)"/>
<path d="M315.437 88.2157L245.035 7.75732L308.687 88.2157L33.1464 272.686L315.437 88.2157Z" fill="url(#paint19_radial_102_243)"/>
<path d="M315.437 88.2157L245.035 7.75732L308.687 88.2157L33.1464 272.686L315.437 88.2157Z" fill="url(#paint20_linear_102_243)"/>
</g>
<g opacity="0.1">
<path d="M298.275 85.7111L227.873 5.25269L291.525 85.7111L15.9845 270.182L298.275 85.7111Z" fill="url(#paint21_linear_102_243)"/>
<path d="M298.275 85.7111L227.873 5.25269L291.525 85.7111L15.9845 270.182L298.275 85.7111Z" fill="url(#paint22_radial_102_243)"/>
<path d="M298.275 85.7111L227.873 5.25269L291.525 85.7111L15.9845 270.182L298.275 85.7111Z" fill="url(#paint23_linear_102_243)"/>
</g>
<g opacity="0.05">
<path d="M281.113 83.2064L210.711 2.74799L274.363 83.2064L-1.17737 267.677L281.113 83.2064Z" fill="url(#paint24_linear_102_243)"/>
<path d="M281.113 83.2064L210.711 2.74799L274.363 83.2064L-1.17737 267.677L281.113 83.2064Z" fill="url(#paint25_radial_102_243)"/>
<path d="M281.113 83.2064L210.711 2.74799L274.363 83.2064L-1.17737 267.677L281.113 83.2064Z" fill="url(#paint26_linear_102_243)"/>
</g>
<g opacity="0.04">
<path d="M263.951 80.7017L193.549 0.243286L257.201 80.7017L-18.3393 265.172L263.951 80.7017Z" fill="url(#paint27_linear_102_243)"/>
<path d="M263.951 80.7017L193.549 0.243286L257.201 80.7017L-18.3393 265.172L263.951 80.7017Z" fill="url(#paint28_radial_102_243)"/>
<path d="M263.951 80.7017L193.549 0.243286L257.201 80.7017L-18.3393 265.172L263.951 80.7017Z" fill="url(#paint29_linear_102_243)"/>
</g>
<path d="M570.161 103.244L640.563 22.7855L576.911 103.244L852.451 287.715L570.161 103.244Z" fill="url(#paint30_linear_102_243)"/>
<path d="M570.161 103.244L640.563 22.7855L576.911 103.244L852.451 287.715L570.161 103.244Z" fill="url(#paint31_radial_102_243)"/>
<path d="M570.161 103.244L640.563 22.7855L576.911 103.244L852.451 287.715L570.161 103.244Z" fill="url(#paint32_linear_102_243)"/>
<g opacity="0.8">
<path d="M588.185 100.739L658.587 20.2808L594.935 100.739L870.476 285.21L588.185 100.739Z" fill="url(#paint33_linear_102_243)"/>
<path d="M588.185 100.739L658.587 20.2808L594.935 100.739L870.476 285.21L588.185 100.739Z" fill="url(#paint34_radial_102_243)"/>
<path d="M588.185 100.739L658.587 20.2808L594.935 100.739L870.476 285.21L588.185 100.739Z" fill="url(#paint35_linear_102_243)"/>
</g>
<g opacity="0.6">
<path d="M605.347 98.2344L675.749 17.7761L612.097 98.2344L887.637 282.705L605.347 98.2344Z" fill="url(#paint36_linear_102_243)"/>
<path d="M605.347 98.2344L675.749 17.7761L612.097 98.2344L887.637 282.705L605.347 98.2344Z" fill="url(#paint37_radial_102_243)"/>
<path d="M605.347 98.2344L675.749 17.7761L612.097 98.2344L887.637 282.705L605.347 98.2344Z" fill="url(#paint38_linear_102_243)"/>
</g>
<g opacity="0.4">
<path d="M619.146 95.7297L689.548 15.2714L625.896 95.7297L901.437 280.2L619.146 95.7297Z" fill="url(#paint39_linear_102_243)"/>
<path d="M619.146 95.7297L689.548 15.2714L625.896 95.7297L901.437 280.2L619.146 95.7297Z" fill="url(#paint40_radial_102_243)"/>
<path d="M619.146 95.7297L689.548 15.2714L625.896 95.7297L901.437 280.2L619.146 95.7297Z" fill="url(#paint41_linear_102_243)"/>
</g>
<g opacity="0.3">
<path d="M636.308 93.2251L706.71 12.7667L643.058 93.2251L918.599 277.696L636.308 93.2251Z" fill="url(#paint42_linear_102_243)"/>
<path d="M636.308 93.2251L706.71 12.7667L643.058 93.2251L918.599 277.696L636.308 93.2251Z" fill="url(#paint43_radial_102_243)"/>
<path d="M636.308 93.2251L706.71 12.7667L643.058 93.2251L918.599 277.696L636.308 93.2251Z" fill="url(#paint44_linear_102_243)"/>
</g>
<g opacity="0.2">
<path d="M653.47 90.7204L723.872 10.262L660.22 90.7204L935.761 275.191L653.47 90.7204Z" fill="url(#paint45_linear_102_243)"/>
<path d="M653.47 90.7204L723.872 10.262L660.22 90.7204L935.761 275.191L653.47 90.7204Z" fill="url(#paint46_radial_102_243)"/>
<path d="M653.47 90.7204L723.872 10.262L660.22 90.7204L935.761 275.191L653.47 90.7204Z" fill="url(#paint47_linear_102_243)"/>
</g>
<g opacity="0.15">
<path d="M670.632 88.2157L741.034 7.75732L677.382 88.2157L952.922 272.686L670.632 88.2157Z" fill="url(#paint48_linear_102_243)"/>
<path d="M670.632 88.2157L741.034 7.75732L677.382 88.2157L952.922 272.686L670.632 88.2157Z" fill="url(#paint49_radial_102_243)"/>
<path d="M670.632 88.2157L741.034 7.75732L677.382 88.2157L952.922 272.686L670.632 88.2157Z" fill="url(#paint50_linear_102_243)"/>
</g>
<g opacity="0.1">
<path d="M687.794 85.7111L758.196 5.25269L694.544 85.7111L970.084 270.182L687.794 85.7111Z" fill="url(#paint51_linear_102_243)"/>
<path d="M687.794 85.7111L758.196 5.25269L694.544 85.7111L970.084 270.182L687.794 85.7111Z" fill="url(#paint52_radial_102_243)"/>
<path d="M687.794 85.7111L758.196 5.25269L694.544 85.7111L970.084 270.182L687.794 85.7111Z" fill="url(#paint53_linear_102_243)"/>
</g>
<g opacity="0.05">
<path d="M704.956 83.2064L775.357 2.74799L711.706 83.2064L987.246 267.677L704.956 83.2064Z" fill="url(#paint54_linear_102_243)"/>
<path d="M704.956 83.2064L775.357 2.74799L711.706 83.2064L987.246 267.677L704.956 83.2064Z" fill="url(#paint55_radial_102_243)"/>
<path d="M704.956 83.2064L775.357 2.74799L711.706 83.2064L987.246 267.677L704.956 83.2064Z" fill="url(#paint56_linear_102_243)"/>
</g>
<g opacity="0.04">
<path d="M722.118 80.7017L792.519 0.243286L728.867 80.7017L1004.41 265.172L722.118 80.7017Z" fill="url(#paint57_linear_102_243)"/>
<path d="M722.118 80.7017L792.519 0.243286L728.867 80.7017L1004.41 265.172L722.118 80.7017Z" fill="url(#paint58_radial_102_243)"/>
<path d="M722.118 80.7017L792.519 0.243286L728.867 80.7017L1004.41 265.172L722.118 80.7017Z" fill="url(#paint59_linear_102_243)"/>
</g>
<defs>
<linearGradient id="paint0_linear_102_243" x1="350.379" y1="22.7855" x2="415.908" y2="117.206" gradientUnits="userSpaceOnUse">
<stop stop-color="#6B4339"/>
<stop offset="1" stop-color="#6B4339" stop-opacity="0"/>
</linearGradient>
<radialGradient id="paint1_radial_102_243" cx="0" cy="0" r="1" gradientUnits="userSpaceOnUse" gradientTransform="translate(415.908 118.959) rotate(155.283) scale(167.375 56.6502)">
<stop stop-color="#E2BDAD" stop-opacity="0.85"/>
<stop offset="1" stop-color="#E2BDAD" stop-opacity="0"/>
</radialGradient>
<linearGradient id="paint2_linear_102_243" x1="62.6074" y1="356.991" x2="371.305" y2="27.6585" gradientUnits="userSpaceOnUse">
<stop stop-color="#6B4339"/>
<stop offset="1" stop-color="#6B4339" stop-opacity="0"/>
</linearGradient>
<linearGradient id="paint3_linear_102_243" x1="332.354" y1="20.2808" x2="397.884" y2="114.701" gradientUnits="userSpaceOnUse">
<stop stop-color="#6B4339"/>
<stop offset="1" stop-color="#6B4339" stop-opacity="0"/>
</linearGradient>
<radialGradient id="paint4_radial_102_243" cx="0" cy="0" r="1" gradientUnits="userSpaceOnUse" gradientTransform="translate(397.884 116.454) rotate(155.283) scale(167.375 56.6502)">
<stop stop-color="#E2BDAD" stop-opacity="0.85"/>
<stop offset="1" stop-color="#E2BDAD" stop-opacity="0"/>
</radialGradient>
<linearGradient id="paint5_linear_102_243" x1="44.5831" y1="354.486" x2="353.281" y2="25.1538" gradientUnits="userSpaceOnUse">
<stop stop-color="#6B4339"/>
<stop offset="1" stop-color="#6B4339" stop-opacity="0"/>
</linearGradient>
<linearGradient id="paint6_linear_102_243" x1="315.193" y1="17.7761" x2="380.722" y2="112.197" gradientUnits="userSpaceOnUse">
<stop stop-color="#6B4339"/>
<stop offset="1" stop-color="#6B4339" stop-opacity="0"/>
</linearGradient>
<radialGradient id="paint7_radial_102_243" cx="0" cy="0" r="1" gradientUnits="userSpaceOnUse" gradientTransform="translate(380.722 113.95) rotate(155.283) scale(167.375 56.6502)">
<stop stop-color="#E2BDAD" stop-opacity="0.85"/>
<stop offset="1" stop-color="#E2BDAD" stop-opacity="0"/>
</radialGradient>
<linearGradient id="paint8_linear_102_243" x1="27.4213" y1="351.982" x2="336.119" y2="22.6491" gradientUnits="userSpaceOnUse">
<stop stop-color="#6B4339"/>
<stop offset="1" stop-color="#6B4339" stop-opacity="0"/>
</linearGradient>
<linearGradient id="paint9_linear_102_243" x1="301.393" y1="15.2714" x2="366.922" y2="109.692" gradientUnits="userSpaceOnUse">
<stop stop-color="#6B4339"/>
<stop offset="1" stop-color="#6B4339" stop-opacity="0"/>
</linearGradient>
<radialGradient id="paint10_radial_102_243" cx="0" cy="0" r="1" gradientUnits="userSpaceOnUse" gradientTransform="translate(366.922 111.445) rotate(155.283) scale(167.375 56.6502)">
<stop stop-color="#E2BDAD" stop-opacity="0.85"/>
<stop offset="1" stop-color="#E2BDAD" stop-opacity="0"/>
</radialGradient>
<linearGradient id="paint11_linear_102_243" x1="13.6218" y1="349.477" x2="322.32" y2="20.1444" gradientUnits="userSpaceOnUse">
<stop stop-color="#6B4339"/>
<stop offset="1" stop-color="#6B4339" stop-opacity="0"/>
</linearGradient>
<linearGradient id="paint12_linear_102_243" x1="284.231" y1="12.7667" x2="349.76" y2="107.187" gradientUnits="userSpaceOnUse">
<stop stop-color="#6B4339"/>
<stop offset="1" stop-color="#6B4339" stop-opacity="0"/>
</linearGradient>
<radialGradient id="paint13_radial_102_243" cx="0" cy="0" r="1" gradientUnits="userSpaceOnUse" gradientTransform="translate(349.76 108.94) rotate(155.283) scale(167.375 56.6502)">
<stop stop-color="#E2BDAD" stop-opacity="0.85"/>
<stop offset="1" stop-color="#E2BDAD" stop-opacity="0"/>
</radialGradient>
<linearGradient id="paint14_linear_102_243" x1="-3.54002" y1="346.972" x2="305.158" y2="17.6398" gradientUnits="userSpaceOnUse">
<stop stop-color="#6B4339"/>
<stop offset="1" stop-color="#6B4339" stop-opacity="0"/>
</linearGradient>
<linearGradient id="paint15_linear_102_243" x1="267.069" y1="10.262" x2="332.599" y2="104.682" gradientUnits="userSpaceOnUse">
<stop stop-color="#6B4339"/>
<stop offset="1" stop-color="#6B4339" stop-opacity="0"/>
</linearGradient>
<radialGradient id="paint16_radial_102_243" cx="0" cy="0" r="1" gradientUnits="userSpaceOnUse" gradientTransform="translate(332.599 106.436) rotate(155.283) scale(167.375 56.6502)">
<stop stop-color="#E2BDAD" stop-opacity="0.85"/>
<stop offset="1" stop-color="#E2BDAD" stop-opacity="0"/>
</radialGradient>
<linearGradient id="paint17_linear_102_243" x1="-20.7019" y1="344.468" x2="287.996" y2="15.1351" gradientUnits="userSpaceOnUse">
<stop stop-color="#6B4339"/>
<stop offset="1" stop-color="#6B4339" stop-opacity="0"/>
</linearGradient>
<linearGradient id="paint18_linear_102_243" x1="249.907" y1="7.75732" x2="315.437" y2="102.178" gradientUnits="userSpaceOnUse">
<stop stop-color="#6B4339"/>
<stop offset="1" stop-color="#6B4339" stop-opacity="0"/>
</linearGradient>
<radialGradient id="paint19_radial_102_243" cx="0" cy="0" r="1" gradientUnits="userSpaceOnUse" gradientTransform="translate(315.437 103.931) rotate(155.283) scale(167.375 56.6502)">
<stop stop-color="#E2BDAD" stop-opacity="0.85"/>
<stop offset="1" stop-color="#E2BDAD" stop-opacity="0"/>
</radialGradient>
<linearGradient id="paint20_linear_102_243" x1="-37.8638" y1="341.963" x2="270.834" y2="12.6304" gradientUnits="userSpaceOnUse">
<stop stop-color="#6B4339"/>
<stop offset="1" stop-color="#6B4339" stop-opacity="0"/>
</linearGradient>
<linearGradient id="paint21_linear_102_243" x1="232.746" y1="5.25268" x2="298.275" y2="99.6731" gradientUnits="userSpaceOnUse">
<stop stop-color="#6B4339"/>
<stop offset="1" stop-color="#6B4339" stop-opacity="0"/>
</linearGradient>
<radialGradient id="paint22_radial_102_243" cx="0" cy="0" r="1" gradientUnits="userSpaceOnUse" gradientTransform="translate(298.275 101.426) rotate(155.283) scale(167.375 56.6502)">
<stop stop-color="#E2BDAD" stop-opacity="0.85"/>
<stop offset="1" stop-color="#E2BDAD" stop-opacity="0"/>
</radialGradient>
<linearGradient id="paint23_linear_102_243" x1="-55.0256" y1="339.458" x2="253.672" y2="10.1257" gradientUnits="userSpaceOnUse">
<stop stop-color="#6B4339"/>
<stop offset="1" stop-color="#6B4339" stop-opacity="0"/>
</linearGradient>
<linearGradient id="paint24_linear_102_243" x1="215.584" y1="2.74798" x2="281.113" y2="97.1684" gradientUnits="userSpaceOnUse">
<stop stop-color="#6B4339"/>
<stop offset="1" stop-color="#6B4339" stop-opacity="0"/>
</linearGradient>
<radialGradient id="paint25_radial_102_243" cx="0" cy="0" r="1" gradientUnits="userSpaceOnUse" gradientTransform="translate(281.113 98.9216) rotate(155.283) scale(167.375 56.6502)">
<stop stop-color="#E2BDAD" stop-opacity="0.85"/>
<stop offset="1" stop-color="#E2BDAD" stop-opacity="0"/>
</radialGradient>
<linearGradient id="paint26_linear_102_243" x1="-72.1875" y1="336.954" x2="236.51" y2="7.62102" gradientUnits="userSpaceOnUse">
<stop stop-color="#6B4339"/>
<stop offset="1" stop-color="#6B4339" stop-opacity="0"/>
</linearGradient>
<linearGradient id="paint27_linear_102_243" x1="198.422" y1="0.243283" x2="263.951" y2="94.6637" gradientUnits="userSpaceOnUse">
<stop stop-color="#6B4339"/>
<stop offset="1" stop-color="#6B4339" stop-opacity="0"/>
</linearGradient>
<radialGradient id="paint28_radial_102_243" cx="0" cy="0" r="1" gradientUnits="userSpaceOnUse" gradientTransform="translate(263.951 96.4169) rotate(155.283) scale(167.375 56.6502)">
<stop stop-color="#E2BDAD" stop-opacity="0.85"/>
<stop offset="1" stop-color="#E2BDAD" stop-opacity="0"/>
</radialGradient>
<linearGradient id="paint29_linear_102_243" x1="-89.3494" y1="334.449" x2="219.348" y2="5.11632" gradientUnits="userSpaceOnUse">
<stop stop-color="#6B4339"/>
<stop offset="1" stop-color="#6B4339" stop-opacity="0"/>
</linearGradient>
<linearGradient id="paint30_linear_102_243" x1="635.69" y1="22.7855" x2="570.161" y2="117.206" gradientUnits="userSpaceOnUse">
<stop stop-color="#6B4339"/>
<stop offset="1" stop-color="#6B4339" stop-opacity="0"/>
</linearGradient>
<radialGradient id="paint31_radial_102_243" cx="0" cy="0" r="1" gradientUnits="userSpaceOnUse" gradientTransform="translate(570.161 118.959) rotate(24.7169) scale(167.375 56.6502)">
<stop stop-color="#E2BDAD" stop-opacity="0.85"/>
<stop offset="1" stop-color="#E2BDAD" stop-opacity="0"/>
</radialGradient>
<linearGradient id="paint32_linear_102_243" x1="923.461" y1="356.991" x2="614.764" y2="27.6585" gradientUnits="userSpaceOnUse">
<stop stop-color="#6B4339"/>
<stop offset="1" stop-color="#6B4339" stop-opacity="0"/>
</linearGradient>
<linearGradient id="paint33_linear_102_243" x1="653.714" y1="20.2808" x2="588.185" y2="114.701" gradientUnits="userSpaceOnUse">
<stop stop-color="#6B4339"/>
<stop offset="1" stop-color="#6B4339" stop-opacity="0"/>
</linearGradient>
<radialGradient id="paint34_radial_102_243" cx="0" cy="0" r="1" gradientUnits="userSpaceOnUse" gradientTransform="translate(588.185 116.454) rotate(24.7169) scale(167.375 56.6502)">
<stop stop-color="#E2BDAD" stop-opacity="0.85"/>
<stop offset="1" stop-color="#E2BDAD" stop-opacity="0"/>
</radialGradient>
<linearGradient id="paint35_linear_102_243" x1="941.486" y1="354.486" x2="632.788" y2="25.1538" gradientUnits="userSpaceOnUse">
<stop stop-color="#6B4339"/>
<stop offset="1" stop-color="#6B4339" stop-opacity="0"/>
</linearGradient>
<linearGradient id="paint36_linear_102_243" x1="670.876" y1="17.7761" x2="605.347" y2="112.197" gradientUnits="userSpaceOnUse">
<stop stop-color="#6B4339"/>
<stop offset="1" stop-color="#6B4339" stop-opacity="0"/>
</linearGradient>
<radialGradient id="paint37_radial_102_243" cx="0" cy="0" r="1" gradientUnits="userSpaceOnUse" gradientTransform="translate(605.347 113.95) rotate(24.7169) scale(167.375 56.6502)">
<stop stop-color="#E2BDAD" stop-opacity="0.85"/>
<stop offset="1" stop-color="#E2BDAD" stop-opacity="0"/>
</radialGradient>
<linearGradient id="paint38_linear_102_243" x1="958.648" y1="351.982" x2="649.95" y2="22.6491" gradientUnits="userSpaceOnUse">
<stop stop-color="#6B4339"/>
<stop offset="1" stop-color="#6B4339" stop-opacity="0"/>
</linearGradient>
<linearGradient id="paint39_linear_102_243" x1="684.676" y1="15.2714" x2="619.146" y2="109.692" gradientUnits="userSpaceOnUse">
<stop stop-color="#6B4339"/>
<stop offset="1" stop-color="#6B4339" stop-opacity="0"/>
</linearGradient>
<radialGradient id="paint40_radial_102_243" cx="0" cy="0" r="1" gradientUnits="userSpaceOnUse" gradientTransform="translate(619.146 111.445) rotate(24.7169) scale(167.375 56.6502)">
<stop stop-color="#E2BDAD" stop-opacity="0.85"/>
<stop offset="1" stop-color="#E2BDAD" stop-opacity="0"/>
</radialGradient>
<linearGradient id="paint41_linear_102_243" x1="972.447" y1="349.477" x2="663.749" y2="20.1444" gradientUnits="userSpaceOnUse">
<stop stop-color="#6B4339"/>
<stop offset="1" stop-color="#6B4339" stop-opacity="0"/>
</linearGradient>
<linearGradient id="paint42_linear_102_243" x1="701.838" y1="12.7667" x2="636.308" y2="107.187" gradientUnits="userSpaceOnUse">
<stop stop-color="#6B4339"/>
<stop offset="1" stop-color="#6B4339" stop-opacity="0"/>
</linearGradient>
<radialGradient id="paint43_radial_102_243" cx="0" cy="0" r="1" gradientUnits="userSpaceOnUse" gradientTransform="translate(636.308 108.94) rotate(24.7169) scale(167.375 56.6502)">
<stop stop-color="#E2BDAD" stop-opacity="0.85"/>
<stop offset="1" stop-color="#E2BDAD" stop-opacity="0"/>
</radialGradient>
<linearGradient id="paint44_linear_102_243" x1="989.609" y1="346.972" x2="680.911" y2="17.6398" gradientUnits="userSpaceOnUse">
<stop stop-color="#6B4339"/>
<stop offset="1" stop-color="#6B4339" stop-opacity="0"/>
</linearGradient>
<linearGradient id="paint45_linear_102_243" x1="718.999" y1="10.262" x2="653.47" y2="104.682" gradientUnits="userSpaceOnUse">
<stop stop-color="#6B4339"/>
<stop offset="1" stop-color="#6B4339" stop-opacity="0"/>
</linearGradient>
<radialGradient id="paint46_radial_102_243" cx="0" cy="0" r="1" gradientUnits="userSpaceOnUse" gradientTransform="translate(653.47 106.436) rotate(24.7169) scale(167.375 56.6502)">
<stop stop-color="#E2BDAD" stop-opacity="0.85"/>
<stop offset="1" stop-color="#E2BDAD" stop-opacity="0"/>
</radialGradient>
<linearGradient id="paint47_linear_102_243" x1="1006.77" y1="344.468" x2="698.073" y2="15.1351" gradientUnits="userSpaceOnUse">
<stop stop-color="#6B4339"/>
<stop offset="1" stop-color="#6B4339" stop-opacity="0"/>
</linearGradient>
<linearGradient id="paint48_linear_102_243" x1="736.161" y1="7.75732" x2="670.632" y2="102.178" gradientUnits="userSpaceOnUse">
<stop stop-color="#6B4339"/>
<stop offset="1" stop-color="#6B4339" stop-opacity="0"/>
</linearGradient>
<radialGradient id="paint49_radial_102_243" cx="0" cy="0" r="1" gradientUnits="userSpaceOnUse" gradientTransform="translate(670.632 103.931) rotate(24.7169) scale(167.375 56.6502)">
<stop stop-color="#E2BDAD" stop-opacity="0.85"/>
<stop offset="1" stop-color="#E2BDAD" stop-opacity="0"/>
</radialGradient>
<linearGradient id="paint50_linear_102_243" x1="1023.93" y1="341.963" x2="715.235" y2="12.6304" gradientUnits="userSpaceOnUse">
<stop stop-color="#6B4339"/>
<stop offset="1" stop-color="#6B4339" stop-opacity="0"/>
</linearGradient>
<linearGradient id="paint51_linear_102_243" x1="753.323" y1="5.25268" x2="687.794" y2="99.6731" gradientUnits="userSpaceOnUse">
<stop stop-color="#6B4339"/>
<stop offset="1" stop-color="#6B4339" stop-opacity="0"/>
</linearGradient>
<radialGradient id="paint52_radial_102_243" cx="0" cy="0" r="1" gradientUnits="userSpaceOnUse" gradientTransform="translate(687.794 101.426) rotate(24.7169) scale(167.375 56.6502)">
<stop stop-color="#E2BDAD" stop-opacity="0.85"/>
<stop offset="1" stop-color="#E2BDAD" stop-opacity="0"/>
</radialGradient>
<linearGradient id="paint53_linear_102_243" x1="1041.09" y1="339.458" x2="732.397" y2="10.1257" gradientUnits="userSpaceOnUse">
<stop stop-color="#6B4339"/>
<stop offset="1" stop-color="#6B4339" stop-opacity="0"/>
</linearGradient>
<linearGradient id="paint54_linear_102_243" x1="770.485" y1="2.74798" x2="704.956" y2="97.1684" gradientUnits="userSpaceOnUse">
<stop stop-color="#6B4339"/>
<stop offset="1" stop-color="#6B4339" stop-opacity="0"/>
</linearGradient>
<radialGradient id="paint55_radial_102_243" cx="0" cy="0" r="1" gradientUnits="userSpaceOnUse" gradientTransform="translate(704.956 98.9216) rotate(24.7169) scale(167.375 56.6502)">
<stop stop-color="#E2BDAD" stop-opacity="0.85"/>
<stop offset="1" stop-color="#E2BDAD" stop-opacity="0"/>
</radialGradient>
<linearGradient id="paint56_linear_102_243" x1="1058.26" y1="336.954" x2="749.558" y2="7.62102" gradientUnits="userSpaceOnUse">
<stop stop-color="#6B4339"/>
<stop offset="1" stop-color="#6B4339" stop-opacity="0"/>
</linearGradient>
<linearGradient id="paint57_linear_102_243" x1="787.647" y1="0.243283" x2="722.118" y2="94.6637" gradientUnits="userSpaceOnUse">
<stop stop-color="#6B4339"/>
<stop offset="1" stop-color="#6B4339" stop-opacity="0"/>
</linearGradient>
<radialGradient id="paint58_radial_102_243" cx="0" cy="0" r="1" gradientUnits="userSpaceOnUse" gradientTransform="translate(722.118 96.4169) rotate(24.7169) scale(167.375 56.6502)">
<stop stop-color="#E2BDAD" stop-opacity="0.85"/>
<stop offset="1" stop-color="#E2BDAD" stop-opacity="0"/>
</radialGradient>
<linearGradient id="paint59_linear_102_243" x1="1075.42" y1="334.449" x2="766.72" y2="5.11632" gradientUnits="userSpaceOnUse">
<stop stop-color="#6B4339"/>
<stop offset="1" stop-color="#6B4339" stop-opacity="0"/>
</linearGradient>
</defs>
</svg>
