<svg width="968" height="367" viewBox="0 0 968 367" fill="none" xmlns="http://www.w3.org/2000/svg">
<path d="M130.346 23.1277L3.40747 180.912L113.873 361.648H848.775L964.482 180.912L827.737 23.1277L668.286 2.66528L589.17 48.8299H378.83L300.321 3.0191L130.346 23.1277Z" stroke="url(#paint0_linear_102_235)" stroke-width="5"/>
<path d="M130.346 23.1277L3.40747 180.912L113.873 361.648H848.775L964.482 180.912L827.737 23.1277L668.286 2.66528L589.17 48.8299H378.83L300.321 3.0191L130.346 23.1277Z" stroke="url(#paint1_radial_102_235)" stroke-width="5"/>
<path d="M130.346 23.1277L3.40747 180.912L113.873 361.648H848.775L964.482 180.912L827.737 23.1277L668.286 2.66528L589.17 48.8299H378.83L300.321 3.0191L130.346 23.1277Z" stroke="url(#paint2_linear_102_235)" stroke-width="5"/>
<path d="M130.346 23.1277L3.40747 180.912L113.873 361.648H848.775L964.482 180.912L827.737 23.1277L668.286 2.66528L589.17 48.8299H378.83L300.321 3.0191L130.346 23.1277Z" stroke="url(#paint3_radial_102_235)" stroke-width="5"/>
<path d="M130.346 23.1277L3.40747 180.912L113.873 361.648H848.775L964.482 180.912L827.737 23.1277L668.286 2.66528L589.17 48.8299H378.83L300.321 3.0191L130.346 23.1277Z" stroke="url(#paint4_radial_102_235)" stroke-width="5"/>
<path d="M3.40747 180.912L130.346 23.1277L307.673 2.14929H664.265L827.737 23.1277L964.482 180.912L848.775 361.648H113.873L3.40747 180.912Z" fill="black"/>
<g filter="url(#filter0_d_102_235)">
<path d="M853.385 357.947H114.616L261.734 319.07H387.968L430.44 284.351H542.11L584.583 319.07H714.719L853.385 357.947Z" fill="url(#paint5_linear_102_235)" shape-rendering="crispEdges"/>
<path d="M542.289 283.851L542.427 283.964L584.76 318.57H714.787L714.853 318.588L853.519 357.466L853.385 358.447H114.616L114.488 357.464L261.606 318.586L261.669 318.57H387.79L430.124 283.964L430.261 283.851H542.289Z" stroke="url(#paint6_linear_102_235)" shape-rendering="crispEdges"/>
</g>
<defs>
<filter id="filter0_d_102_235" x="98.3605" y="259.351" width="771.294" height="107.597" filterUnits="userSpaceOnUse" color-interpolation-filters="sRGB">
<feFlood flood-opacity="0" result="BackgroundImageFix"/>
<feColorMatrix in="SourceAlpha" type="matrix" values="0 0 0 0 0 0 0 0 0 0 0 0 0 0 0 0 0 0 127 0" result="hardAlpha"/>
<feOffset dy="-8"/>
<feGaussianBlur stdDeviation="8"/>
<feComposite in2="hardAlpha" operator="out"/>
<feColorMatrix type="matrix" values="0 0 0 0 0 0 0 0 0 0 0 0 0 0 0 0 0 0 0.16 0"/>
<feBlend mode="normal" in2="BackgroundImageFix" result="effect1_dropShadow_102_235"/>
<feBlend mode="normal" in="SourceGraphic" in2="effect1_dropShadow_102_235" result="shape"/>
</filter>
<linearGradient id="paint0_linear_102_235" x1="741.384" y1="2.66528" x2="790.033" y2="178.792" gradientUnits="userSpaceOnUse">
<stop stop-color="#6B4339"/>
<stop offset="1" stop-color="#6B4339" stop-opacity="0"/>
</linearGradient>
<radialGradient id="paint1_radial_102_235" cx="0" cy="0" r="1" gradientUnits="userSpaceOnUse" gradientTransform="translate(964.482 132.982) rotate(169.618) scale(526.247 83.1202)">
<stop stop-color="#E2BDAD" stop-opacity="0.45"/>
<stop offset="1" stop-color="#E2BDAD" stop-opacity="0"/>
</radialGradient>
<linearGradient id="paint2_linear_102_235" x1="-238.351" y1="455.519" x2="36.19" y2="-280.392" gradientUnits="userSpaceOnUse">
<stop stop-color="#6B4339"/>
<stop offset="1" stop-color="#6B4339" stop-opacity="0"/>
</linearGradient>
<radialGradient id="paint3_radial_102_235" cx="0" cy="0" r="1" gradientUnits="userSpaceOnUse" gradientTransform="translate(122.766 -44.4546) rotate(111.881) scale(276.131 43.6147)">
<stop stop-color="#E2BDAD"/>
<stop offset="1" stop-color="#E2BDAD" stop-opacity="0"/>
</radialGradient>
<radialGradient id="paint4_radial_102_235" cx="0" cy="0" r="1" gradientUnits="userSpaceOnUse" gradientTransform="translate(477.421 14.8139) rotate(85.2577) scale(481.991 76.1301)">
<stop stop-color="#E2BDAD" stop-opacity="0.45"/>
<stop offset="1" stop-color="#E2BDAD" stop-opacity="0"/>
</radialGradient>
<linearGradient id="paint5_linear_102_235" x1="484" y1="280.387" x2="483.862" y2="360.025" gradientUnits="userSpaceOnUse">
<stop/>
<stop offset="1" stop-opacity="0.53"/>
</linearGradient>
<linearGradient id="paint6_linear_102_235" x1="484" y1="363.762" x2="484" y2="282.926" gradientUnits="userSpaceOnUse">
<stop stop-color="#C1927E" stop-opacity="0"/>
<stop offset="1" stop-color="#6B4339"/>
</linearGradient>
</defs>
</svg>
