<svg width="550" height="800" viewBox="0 0 550 800" fill="none" xmlns="http://www.w3.org/2000/svg">
<path d="M437.55 3.39999C442.444 6.23691 446.23 10.6495 448.292 15.9169C450.354 21.1842 450.568 26.995 448.9 32.4L358.85 325H525C529.883 324.998 534.659 326.426 538.74 329.108C542.82 331.789 546.026 335.607 547.962 340.09C549.897 344.572 550.478 349.524 549.632 354.333C548.785 359.141 546.55 363.597 543.2 367.15L143.2 792.15C139.33 796.266 134.179 798.949 128.589 799.763C122.998 800.576 117.296 799.473 112.413 796.631C107.531 793.789 103.754 789.377 101.7 784.115C99.6451 778.852 99.4337 773.048 101.1 767.65L191.15 475H25C20.1172 475.002 15.3408 473.574 11.2603 470.892C7.17978 468.211 3.97385 464.393 2.03825 459.91C0.10265 455.428 -0.477876 450.476 0.368329 445.667C1.21453 440.858 3.45042 436.403 6.79999 432.85L406.8 7.84999C410.666 3.73995 415.808 1.05842 421.391 0.24142C426.974 -0.575583 432.669 0.519986 437.55 3.34999V3.39999Z" fill="#77C000"/>
</svg>
